<?xml version="1.0" encoding="UTF-8" standalone="no"?>
<!-- Created with Inkscape (http://www.inkscape.org/) -->

<svg
   version="1.1"
   width="242"
   height="362"
   id="svg2"
   sodipodi:docname="UNO_cards_deck.svg"
   xmlns:inkscape="http://www.inkscape.org/namespaces/inkscape"
   xmlns:sodipodi="http://sodipodi.sourceforge.net/DTD/sodipodi-0.dtd"
   xmlns="http://www.w3.org/2000/svg"
   xmlns:svg="http://www.w3.org/2000/svg"
   xmlns:rdf="http://www.w3.org/1999/02/22-rdf-syntax-ns#"
   xmlns:cc="http://creativecommons.org/ns#"
   xmlns:dc="http://purl.org/dc/elements/1.1/">
  <sodipodi:namedview
     id="namedview972"
     pagecolor="#ffffff"
     bordercolor="#000000"
     borderopacity="0.25"
     inkscape:showpageshadow="2"
     inkscape:pageopacity="0.0"
     inkscape:pagecheckerboard="true"
     inkscape:deskcolor="#d1d1d1"
     showgrid="false"
     inkscape:zoom="1.129771"
     inkscape:cx="426.19257"
     inkscape:cy="240.75676"
     inkscape:window-width="1920"
     inkscape:window-height="1001"
     inkscape:window-x="-9"
     inkscape:window-y="-9"
     inkscape:window-maximized="1"
     inkscape:current-layer="svg2" />
  <defs
     id="defs4" />
  <metadata
     id="metadata7">
    <rdf:RDF>
      <cc:Work
         rdf:about="">
        <dc:format>image/svg+xml</dc:format>
        <dc:type
           rdf:resource="http://purl.org/dc/dcmitype/StillImage" />
      </cc:Work>
    </rdf:RDF>
  </metadata>
  <g
     transform="matrix(4,0,0,4,1.0000003,-1328.4487)"
     id="g6555">
    <rect
       width="60"
       height="90"
       rx="10"
       ry="10"
       x="0"
       y="332.36218"
       id="rect2987-1"
       style="fill:#ffffff;fill-opacity:1;fill-rule:evenodd;stroke:#000000;stroke-width:0.5;stroke-miterlimit:4;stroke-dasharray:none"
       inkscape:export-filename="0.svg"
       inkscape:export-xdpi="96"
       inkscape:export-ydpi="96" />
    <rect
       width="50"
       height="80"
       rx="5"
       ry="5"
       x="5"
       y="337.36218"
       id="rect3757-5"
       style="fill:#ff5555;fill-opacity:1;fill-rule:evenodd;stroke:none" />
    <path
       d="m 45,352.36216 c -22.09139,0 -40,17.90861 -40,40 0,5.52285 4.47715,10 10,10 22.09139,0 40,-17.90861 40,-40 0,-5.52285 -4.47715,-10 -10,-10 z"
       id="path3773-0-4-8-4-2"
       style="fill:#ffffff;fill-opacity:1;fill-rule:evenodd;stroke:none" />
    <path
       d="m 30,362.36217 c -5.52285,0 -10,4.47715 -10,10 v 10 c 0,5.52285 4.47715,10 10,10 5.52285,0 10,-4.47715 10,-10 v -10 c 0,-5.52285 -4.47715,-10 -10,-10 z m 0,5 c 2.76142,0 5,2.23858 5,5 v 10 c 0,2.76142 -2.23858,5 -5,5 -2.76142,0 -5,-2.23858 -5,-5 v -10 c 0,-2.76142 2.23858,-5 5,-5 z"
       id="path3962-7"
       style="fill:#ff5555;fill-opacity:1;fill-rule:evenodd;stroke:none" />
    <path
       d="m 12.5,339.86217 c -2.76143,0 -5,2.23857 -5,5 v 5 c 0,2.76143 2.23857,5 5,5 2.76142,0 5,-2.23857 5,-5 v -5 c 0,-2.76143 -2.23858,-5 -5,-5 z m 0,2.5 c 1.38071,0 2.5,1.11929 2.5,2.5 v 5 c 0,1.38071 -1.11929,2.5 -2.5,2.5 -1.38071,0 -2.5,-1.11929 -2.5,-2.5 v -5 c 0,-1.38071 1.11929,-2.5 2.5,-2.5 z"
       id="path3962-7-1"
       style="fill:#ffffff;fill-opacity:1;fill-rule:evenodd;stroke:none" />
    <path
       d="m 47.5,399.86217 c -2.76143,0 -5,2.23857 -5,5 v 5 c 0,2.76143 2.23857,5 5,5 2.76142,0 5,-2.23857 5,-5 v -5 c 0,-2.76143 -2.23858,-5 -5,-5 z m 0,2.5 c 1.38071,0 2.5,1.11929 2.5,2.5 v 5 c 0,1.38071 -1.11929,2.5 -2.5,2.5 -1.38071,0 -2.5,-1.11929 -2.5,-2.5 v -5 c 0,-1.38071 1.11929,-2.5 2.5,-2.5 z"
       id="path3962-7-1-2"
       style="fill:#ffffff;fill-opacity:1;fill-rule:evenodd;stroke:none" />
  </g>
</svg>
