<?xml version="1.0" encoding="UTF-8" standalone="no"?>
<!-- Created with Inkscape (http://www.inkscape.org/) -->

<svg
   version="1.1"
   width="242"
   height="362"
   id="svg2"
   xmlns="http://www.w3.org/2000/svg"
   xmlns:svg="http://www.w3.org/2000/svg"
   xmlns:rdf="http://www.w3.org/1999/02/22-rdf-syntax-ns#"
   xmlns:cc="http://creativecommons.org/ns#"
   xmlns:dc="http://purl.org/dc/elements/1.1/">
  <defs
     id="defs4" />
  <metadata
     id="metadata7">
    <rdf:RDF>
      <cc:Work
         rdf:about="">
        <dc:format>image/svg+xml</dc:format>
        <dc:type
           rdf:resource="http://purl.org/dc/dcmitype/StillImage" />
      </cc:Work>
    </rdf:RDF>
  </metadata>
  <rect
     width="240"
     height="360"
     rx="40"
     ry="40"
     x="1"
     y="1"
     id="rect2987-16-4"
     style="fill:#ffffff;fill-opacity:1;fill-rule:evenodd;stroke:#000000;stroke-width:2;stroke-miterlimit:4;stroke-dasharray:none" />
  <rect
     width="200"
     height="320"
     rx="20"
     ry="20"
     x="21"
     y="21"
     id="rect3757-8-4"
     style="fill:#ff5555;fill-opacity:1;fill-rule:evenodd;stroke:none;stroke-width:4" />
  <path
     d="m 181.00001,80.999957 c -88.3656,0 -160,71.634443 -160,160.000003 0,22.0914 17.9086,40 40,40 88.3655,0 160,-71.63444 160,-160 0,-22.091403 -17.9086,-40.000003 -40,-40.000003 z"
     id="path3773-0-4-8-4-62-2"
     style="fill:#ffffff;fill-opacity:1;fill-rule:evenodd;stroke:none;stroke-width:4" />
  <path
     d="m 113.00001,120.99996 -20,20 v 24 l 20,-20 v 96 h 20 v -120 z"
     id="rect3921-89-0"
     style="fill:#ff5555;fill-opacity:1;fill-rule:evenodd;stroke:none;stroke-width:4" />
  <path
     d="m 41.00001,30.999957 -10,10 v 12 l 10,-10 v 48 h 10 v -60 z"
     id="rect3921-5-3-5"
     style="fill:#ffffff;fill-opacity:1;fill-rule:evenodd;stroke:none;stroke-width:4" />
  <path
     d="m 201.00001,330.99996 10,-10 v -12 l -10,10 v -48 h -10 v 60 z"
     id="rect3921-5-5-14-3"
     style="fill:#ffffff;fill-opacity:1;fill-rule:evenodd;stroke:none;stroke-width:4" />
</svg>
